<svg xmlns="http://www.w3.org/2000/svg" xmlns:xlink="http://www.w3.org/1999/xlink" width="238" height="233" viewBox="0 0 238 233">
  <defs>
    <linearGradient id="linear-gradient" x1="0.5" y1="1" x2="0.873" y2="0.214" gradientUnits="objectBoundingBox">
      <stop offset="0" stop-color="#284e5b"/>
      <stop offset="0.528" stop-color="#4e998e"/>
      <stop offset="1" stop-color="#fbad6b"/>
    </linearGradient>
  </defs>
  <g id="Group_62" data-name="Group 62" transform="translate(-842 -1099)">
    <ellipse id="Ellipse_11" data-name="Ellipse 11" cx="119" cy="116.5" rx="119" ry="116.5" transform="translate(842 1099)" fill="url(#linear-gradient)"/>
    <path id="FontAwsome_fingerprint_" data-name="FontAwsome (fingerprint)" d="M70.959,70.035a6.743,6.743,0,0,0-6.649,6.834,213.662,213.662,0,0,1-7.674,60.237c-.756,2.768.6,8.682,6.4,8.682a6.68,6.68,0,0,0,6.4-4.989A226.11,226.11,0,0,0,77.6,76.869a6.739,6.739,0,0,0-6.646-6.834ZM70.72,46.763A28.1,28.1,0,0,0,42.142,75.548a191.853,191.853,0,0,1-3.7,40.59,6.83,6.83,0,0,0,5.164,8.075,6.648,6.648,0,0,0,7.856-5.308A205.874,205.874,0,0,0,55.44,75.334a14.635,14.635,0,0,1,15.084-14.9A16.245,16.245,0,0,1,86.486,76.225,235.167,235.167,0,0,1,83.547,117.1a6.813,6.813,0,0,0,5.474,7.853c5.532.948,7.427-4.3,7.64-5.629a249.511,249.511,0,0,0,3.122-43.312A29.833,29.833,0,0,0,70.72,46.763ZM40.056,41.131a6.532,6.532,0,0,0-9.352.991A50.262,50.262,0,0,0,19.969,74.013a169.858,169.858,0,0,1-2.524,31.905,6.827,6.827,0,0,0,5.363,7.941c5.571,1,7.5-4.217,7.726-5.513A183.964,183.964,0,0,0,33.267,73.8a35.813,35.813,0,0,1,7.757-23.056,6.969,6.969,0,0,0-.967-9.613ZM70.382,23.383A48.234,48.234,0,0,0,57.7,24.8a6.851,6.851,0,0,0-4.939,8.226,6.661,6.661,0,0,0,8,5.077,38.728,38.728,0,0,1,9.419-1.051,39.294,39.294,0,0,1,38.473,38.321,257.8,257.8,0,0,1-1.546,32.355,6.8,6.8,0,0,0,5.848,7.568c4.632.555,7.067-3.383,7.363-6.011a271.854,271.854,0,0,0,1.632-34.126c-.432-28.118-23.567-51.347-51.571-51.775Zm69.83,34.582a6.62,6.62,0,0,0-7.926-5.2,6.837,6.837,0,0,0-5.058,8.146c1.3,6.1,1.36,10.652,1.3,17.54a6.745,6.745,0,0,0,6.593,6.891h.055a6.74,6.74,0,0,0,6.649-6.777c.05-6.316.111-12.56-1.615-20.6ZM129.1,32.133A73.148,73.148,0,0,0,70.042.006a68.734,68.734,0,0,0-70,70.226L.012,76.345a6.752,6.752,0,0,0,6.449,7.03c.064.006.133.006.2.006a6.739,6.739,0,0,0,6.64-6.634l.044-6.731a55.255,55.255,0,0,1,56.5-56.339,59.908,59.908,0,0,1,48.374,26.307,6.534,6.534,0,0,0,9.258,1.669,6.956,6.956,0,0,0,1.618-9.519Z" transform="translate(889.991 1142.212)" fill="#fff"/>
  </g>
</svg>
