<svg xmlns="http://www.w3.org/2000/svg" width="30" height="30" viewBox="0 0 50 50">
  <path id="Icon_awesome-sort-alpha-down" data-name="Icon awesome-sort-alpha-down" d="M19.643,37.964H14.286V4.036A1.786,1.786,0,0,0,12.5,2.25H8.929A1.786,1.786,0,0,0,7.143,4.036V37.964H1.786a1.787,1.787,0,0,0-1.26,3.048L9.454,51.727a1.786,1.786,0,0,0,2.525,0l8.929-10.714A1.789,1.789,0,0,0,19.643,37.964ZM46.43,30.821H32.144a1.786,1.786,0,0,0-1.786,1.786v3.571a1.786,1.786,0,0,0,1.786,1.786h6.25l-6.837,7.863a3.571,3.571,0,0,0-1.2,2.67v1.968a1.786,1.786,0,0,0,1.786,1.786H46.43a1.786,1.786,0,0,0,1.786-1.786V46.893a1.786,1.786,0,0,0-1.786-1.786h-6.25l6.837-7.863a3.571,3.571,0,0,0,1.2-2.67V32.607A1.786,1.786,0,0,0,46.43,30.821ZM49.9,21.292,43.281,3.435A1.786,1.786,0,0,0,41.6,2.25H36.974a1.786,1.786,0,0,0-1.682,1.185L28.677,21.292a1.786,1.786,0,0,0,1.681,2.386h2.771a1.786,1.786,0,0,0,1.7-1.237L35.322,21h7.924l.492,1.442a1.786,1.786,0,0,0,1.7,1.237h2.772A1.786,1.786,0,0,0,49.9,21.292ZM37.457,14.75l1.829-5.357,1.829,5.357Z" transform="translate(0 -2.25)" fill="#47988f"/>
</svg>
