<svg xmlns="http://www.w3.org/2000/svg" width="30" height="30" viewBox="0 0 50 50">
  <path id="FontAwsome_sort-alpha-up_" data-name="FontAwsome (sort-alpha-up)" d="M1.782,46.286H7.139V80.214A1.786,1.786,0,0,0,8.925,82H12.5a1.786,1.786,0,0,0,1.786-1.786V46.286h5.357A1.787,1.787,0,0,0,20.9,43.238L11.973,32.523a1.786,1.786,0,0,0-2.525,0L.519,43.238A1.787,1.787,0,0,0,1.782,46.286ZM46.425,60.571H32.139a1.786,1.786,0,0,0-1.786,1.786v3.571a1.786,1.786,0,0,0,1.786,1.786h6.25l-6.837,7.863a3.571,3.571,0,0,0-1.2,2.67v1.968A1.786,1.786,0,0,0,32.139,82H46.425a1.786,1.786,0,0,0,1.786-1.786V76.643a1.786,1.786,0,0,0-1.786-1.786h-6.25l6.837-7.863a3.571,3.571,0,0,0,1.2-2.67V62.357A1.786,1.786,0,0,0,46.425,60.571Zm3.467-9.529L43.277,33.185A1.786,1.786,0,0,0,41.595,32H36.97a1.786,1.786,0,0,0-1.682,1.185L28.673,51.042a1.786,1.786,0,0,0,1.681,2.386h2.771a1.786,1.786,0,0,0,1.7-1.237l.493-1.442h7.924l.492,1.442a1.786,1.786,0,0,0,1.7,1.237h2.772a1.786,1.786,0,0,0,1.681-2.386ZM37.453,44.5l1.829-5.357L41.111,44.5Z" transform="translate(0.004 -32)" fill="#47988f"/>
</svg>
